<?xml version="1.0" encoding="iso-8859-1"?>
<!-- Generator: Adobe Illustrator 19.0.0, SVG Export Plug-In . SVG Version: 6.00 Build 0)  -->
<svg version="1.1" id="Layer_1" xmlns="http://www.w3.org/2000/svg" xmlns:xlink="http://www.w3.org/1999/xlink" x="0px" y="0px"
	 viewBox="0 0 470 470" style="enable-background:new 0 0 470 470;" xml:space="preserve">
<g>
	<g>
		<g>
			<path d="M434.331,304.847c9.106-24.096,13.718-49.398,13.718-75.335c0-56.923-22.157-110.428-62.391-150.661
				C345.426,38.62,291.921,16.463,235,16.463c-25.806,0-50.898,4.546-74.702,13.524C142.845,10.84,118.466,0,92.316,0
				C41.413,0,0,41.414,0,92.317c0,27.214,12.157,53.053,32.858,70.529c-7.24,21.684-10.907,44.076-10.907,66.666
				c0,56.921,22.156,110.426,62.387,150.658c40.231,40.233,93.738,62.391,150.662,62.391c22.852,0,45.588-3.768,67.703-11.209
				C319.896,455.379,347.917,470,377.684,470C428.587,470,470,428.586,470,377.683C470,349.024,456.808,322.362,434.331,304.847z
				 M377.684,450c-25.491,0-49.353-13.707-62.272-35.772c-1.839-3.139-5.167-4.948-8.633-4.948c-1.177,0-2.37,0.209-3.526,0.645
				c-22.229,8.385-45.192,12.636-68.252,12.636c-51.582,0-100.065-20.077-136.52-56.533
				c-36.454-36.455-56.529-84.937-56.529-136.516c0-22.627,4.073-45.051,12.107-66.649c1.576-4.24,0.111-9.01-3.574-11.633
				C31.396,137.642,20,115.618,20,92.317C20,52.441,52.441,20,92.316,20c22.463,0,43.263,10.228,57.066,28.062
				c2.769,3.575,7.59,4.849,11.762,3.107c23.368-9.758,48.217-14.705,73.855-14.705c51.579,0,100.061,20.076,136.517,56.531
				c36.455,36.455,56.532,84.938,56.532,136.518c0,25.949-5.091,51.195-15.132,75.038c-1.882,4.468-0.287,9.643,3.782,12.277
				C437.551,330.322,450,353.071,450,377.683C450,417.559,417.559,450,377.684,450z"/>
			<path d="M249.804,198.135c-69.187-13.447-73.667-34.583-57.021-49.321c16.666-14.726,66.164-21.361,80.076,4.486
				c13.463,24.973,23.077,35.226,41.641,30.74c17.738-4.277,20.291-28.822,12.82-43.554c-6.026-11.897-33.315-42.284-87.131-42.284
				c-53.807,0-110.184,19.861-110.184,69.187s51.254,71.105,100.58,78.158c49.315,7.042,60.848,28.189,54.461,43.57
				c-6.4,15.36-27.559,30.087-59.584,26.893c-32.037-3.194-46.818-30.022-51.256-43.57c-4.266-13.012-19.207-14.728-26.26-14.095
				c-7.053,0.654-29.475,9.636-19.229,41.008c10.257,31.394,43.58,56.378,110.195,56.378s105.693-41.008,105.695-80.075
				C344.607,236.571,319.001,211.597,249.804,198.135z"/>
		</g>
	</g>
</g>
<g>
</g>
<g>
</g>
<g>
</g>
<g>
</g>
<g>
</g>
<g>
</g>
<g>
</g>
<g>
</g>
<g>
</g>
<g>
</g>
<g>
</g>
<g>
</g>
<g>
</g>
<g>
</g>
<g>
</g>
</svg>
